<?xml version="1.0" encoding="utf-8"?>
<!-- Generator: Adobe Illustrator 25.1.0, SVG Export Plug-In . SVG Version: 6.00 Build 0)  -->
<svg version="1.1" id="Слой_1" xmlns="http://www.w3.org/2000/svg" xmlns:xlink="http://www.w3.org/1999/xlink" x="0px" y="0px"
	 viewBox="0 0 281.3 242.8" style="enable-background:new 0 0 281.3 242.8;" xml:space="preserve">
<style type="text/css">
	.st0{fill:#2D3D56;}
	.st1{fill-rule:evenodd;clip-rule:evenodd;fill:#2D3D56;}
</style>
<g>
	<g>
		<polygon class="st0" points="180.8,162.6 198.9,162.6 198.9,17.8 180.8,17.8 180.8,162.6 		"/>
		<polygon class="st0" points="166.4,108.4 166.4,90.4 147.9,90.4 139.5,108.4 166.4,108.4 		"/>
		<path class="st0" d="M133.1,90.4h-19.8l-13.8,29.7c-4.6-9.9-9.2-19.8-13.8-29.7H73.7c-4.6,9.9-9.2,19.8-13.8,29.7L46,90.4H26.2
			c11.2,24.1,22.4,48.1,33.7,72.2c6.6-14.1,13.2-28.3,19.8-42.5c6.6,14.2,13.2,28.3,19.8,42.5C110.7,138.5,121.9,114.5,133.1,90.4
			L133.1,90.4z"/>
		<polygon class="st0" points="211.5,162.6 229.6,162.6 229.6,17.8 211.5,17.8 211.5,162.6 		"/>
		<polygon class="st0" points="166.4,162.6 166.4,150 120.1,150 114.2,162.6 166.4,162.6 		"/>
		<path class="st1" d="M132.7,122.9l-5.9,12.6c9,0,26.9,0,26.9,0v-12.6C153.8,122.9,133.1,122.9,132.7,122.9L132.7,122.9z"/>
		<polygon class="st0" points="244.1,158.3 244.1,162.6 242.5,162.6 242.5,152.3 244.1,152.3 244.1,156.6 255,156.6 255,158.3 
			244.1,158.3 		"/>
		<path class="st0" d="M255.1,132c0,1.3-0.3,2.4-0.8,3.4c-0.5,1-1.3,1.8-2.3,2.4c-1,0.6-2.1,0.9-3.2,0.9c-1.2,0-2.3-0.3-3.2-0.9
			c-1-0.6-1.7-1.4-2.3-2.4c-0.5-1-0.8-2.1-0.8-3.4c0-1.2,0.3-2.4,0.8-3.4c0.5-1,1.3-1.8,2.3-2.4c1-0.6,2-0.9,3.3-0.9
			c1.2,0,2.3,0.3,3.3,0.9c1,0.6,1.7,1.4,2.3,2.4C254.8,129.7,255.1,130.8,255.1,132L255.1,132z M253.5,132c0-0.9-0.2-1.7-0.6-2.5
			c-0.4-0.7-1-1.3-1.7-1.7c-0.7-0.4-1.5-0.6-2.4-0.6c-0.9,0-1.7,0.2-2.4,0.6c-0.7,0.4-1.3,1-1.7,1.7c-0.4,0.7-0.6,1.5-0.6,2.5
			c0,0.9,0.2,1.7,0.6,2.5c0.4,0.7,1,1.3,1.7,1.7c0.7,0.4,1.5,0.6,2.4,0.6c0.9,0,1.7-0.2,2.4-0.6c0.7-0.4,1.3-1,1.7-1.7
			C253.3,133.8,253.5,132.9,253.5,132L253.5,132z"/>
		<polygon class="st0" points="242.5,92.6 255,96.8 255,98.7 245,102 255,105.4 255,107.3 242.5,111.5 242.5,109.6 252.6,106.3 
			242.5,102.8 242.5,101.2 252.7,97.8 242.5,94.3 242.5,92.6 		"/>
		<polygon class="st0" points="253.4,68.5 255,68.5 255,77.5 242.5,77.5 242.5,68.8 244.1,68.8 244.1,75.8 247.9,75.8 247.9,69.6 
			249.4,69.6 249.4,75.8 253.4,75.8 253.4,68.5 		"/>
		<path class="st0" d="M255,44.4l-3.8,2.7c0,0.3,0,0.6,0,0.8V51h3.8v1.8h-12.4v-4.8c0-1.6,0.4-2.9,1.2-3.8c0.8-0.9,1.8-1.4,3.2-1.4
			c1,0,1.8,0.2,2.4,0.7c0.7,0.5,1.2,1.1,1.5,2l4.2-2.9V44.4L255,44.4z M249.7,47.9c0-1.1-0.2-2-0.7-2.6c-0.5-0.6-1.2-0.9-2.1-0.9
			c-0.9,0-1.6,0.3-2.1,0.9c-0.5,0.6-0.7,1.4-0.7,2.6v3h5.6V47.9L249.7,47.9z"/>
		<path class="st0" d="M255.1,23.3c0,0.9-0.1,1.8-0.4,2.7c-0.3,0.9-0.7,1.6-1.1,2l-1.4-0.7c0.4-0.5,0.8-1.1,1-1.8
			c0.3-0.7,0.4-1.5,0.4-2.3c0-1-0.2-1.8-0.5-2.3c-0.3-0.5-0.8-0.8-1.4-0.8c-0.4,0-0.8,0.1-1,0.4c-0.3,0.3-0.5,0.6-0.6,1
			c-0.1,0.4-0.3,1-0.5,1.7c-0.2,0.9-0.4,1.7-0.7,2.3c-0.2,0.6-0.6,1.1-1,1.5c-0.5,0.4-1.1,0.6-1.9,0.6c-0.7,0-1.3-0.2-1.8-0.5
			c-0.5-0.3-1-0.9-1.3-1.6c-0.3-0.7-0.5-1.6-0.5-2.6c0-0.7,0.1-1.5,0.3-2.2c0.2-0.7,0.5-1.3,0.8-1.8l1.4,0.6
			c-0.3,0.5-0.6,1.1-0.8,1.7c-0.2,0.6-0.3,1.2-0.3,1.7c0,1,0.2,1.8,0.5,2.3c0.4,0.5,0.8,0.8,1.4,0.8c0.4,0,0.8-0.1,1-0.4
			c0.3-0.3,0.5-0.6,0.6-1.1c0.1-0.4,0.3-1,0.5-1.7c0.2-0.9,0.4-1.7,0.7-2.3c0.2-0.6,0.6-1.1,1-1.5c0.5-0.4,1.1-0.6,1.9-0.6
			c0.7,0,1.2,0.2,1.8,0.5c0.5,0.4,1,0.9,1.3,1.6C254.9,21.3,255.1,22.2,255.1,23.3L255.1,23.3z"/>
	</g>
	<g>
		<g>
			<path class="st1" d="M114.6,196.3h3.5v20h-3.5c-0.8,0-1.5-0.7-1.5-1.5v-17C113.2,197,113.8,196.3,114.6,196.3L114.6,196.3z"/>
			<polygon class="st0" points="126.2,216.3 118,208 116.2,206.2 118,204.4 126.1,196.3 133.3,196.3 123.3,206.2 133.3,216.2 
				133.3,216.3 126.2,216.3 			"/>
			<path class="st1" d="M143.3,201.3c2.8,0,5,2.2,5,5c0,2.8-2.2,5-5,5c-2.8,0-5-2.2-5-5C138.3,203.5,140.5,201.3,143.3,201.3
				L143.3,201.3z M143.3,196.3c5.5,0,10,4.5,10,10c0,5.5-4.5,10-10,10c-5.5,0-10-4.5-10-10C133.3,200.8,137.8,196.3,143.3,196.3
				L143.3,196.3z"/>
			<path class="st1" d="M188.8,201.3c2.8,0,5,2.2,5,5c0,2.8-2.2,5-5,5c-2.8,0-5-2.2-5-5C183.8,203.5,186.1,201.3,188.8,201.3
				L188.8,201.3z M188.8,196.3c5.5,0,10,4.5,10,10c0,5.5-4.5,10-10,10c-5.5,0-10-4.5-10-10C178.8,200.8,183.3,196.3,188.8,196.3
				L188.8,196.3z"/>
			<path class="st1" d="M241,201.3c1.2,0,2.3,0.4,3.2,1.1c0.9,0.8,2.1,0.9,3.2,0.3l2.3-1.3c-1.7-3-5-5.1-8.7-5.1
				c-5.5,0-10,4.5-10,10c0,5.5,4.5,10,10,10c3.7,0,7-2,8.7-5.1l-2.4-1.3c-1-0.6-2.3-0.5-3.2,0.3c-0.9,0.7-2,1.1-3.2,1.1
				c-2.8,0-5-2.2-5-5C236,203.5,238.2,201.3,241,201.3L241,201.3z"/>
			<path class="st1" d="M199.4,214.9l6.9-16.7c0.5-1.2,1.7-2,3-2l0.6,0c1.3,0,2.5,0.8,3,2l6.7,16.6c0.1,0.3,0.1,0.7-0.1,1
				c-0.2,0.3-0.5,0.3-0.9,0.3h-2c-1.4,0-2.5-0.6-3-1.9l-4-10l-4.1,10c-0.5,1.2-1.7,1.8-3,1.8h-2c-0.4,0-0.7-0.1-0.9-0.4
				C199.3,215.5,199.3,215.3,199.4,214.9L199.4,214.9z"/>
			<path class="st1" d="M227.9,216.3h-5.3v-10.8c0-0.9,0.8-1.7,1.7-1.7h3.6V216.3L227.9,216.3z"/>
			<path class="st0" d="M99.5,203.8h9.2v1.7c0,1.8-1.5,3.2-3.2,3.2h-6h-3.2V207C96.3,205.3,97.7,203.8,99.5,203.8L99.5,203.8z"/>
			<path class="st0" d="M99.5,211.3h9.2v1.7c0,1.8-1.5,3.2-3.2,3.2h-6h-3.2v-1.7C96.3,212.8,97.7,211.3,99.5,211.3L99.5,211.3z"/>
			<path class="st1" d="M94,196.3l14.8,0v1.7c0,1.8-1.5,3.2-3.2,3.2h-8.6c-0.9,0-1.7,0.4-2.3,0.9l0,0c-0.6,0.6-0.9,1.4-0.9,2.3v4.2
				l0,7.6H92c-1.8,0-3.2-1.5-3.2-3.2v-4.4v-4.2v-2.9c0-1.4,0.6-2.8,1.5-3.7l0,0C91.2,196.9,92.5,196.3,94,196.3L94,196.3z"/>
			<path class="st0" d="M160.9,207v9.2h-1.7c-1.8,0-3.2-1.5-3.2-3.2v-6v-3.2h1.7C159.5,203.8,160.9,205.3,160.9,207L160.9,207z"/>
			<path class="st1" d="M176,201.5l0,14.8h-1.7c-1.8,0-3.2-1.5-3.2-3.2v-8.6c0-0.9-0.4-1.7-0.9-2.3l0,0c-0.6-0.6-1.4-0.9-2.3-0.9
				h-4.2l-7.6,0v-1.7c0-1.8,1.5-3.2,3.2-3.2h4.4h4.2h2.9c1.4,0,2.8,0.6,3.7,1.5l0,0C175.4,198.8,176,200.1,176,201.5L176,201.5z"/>
			<path class="st1" d="M227.9,201.2h-5.5v-3.5c0-0.8,0.7-1.5,1.5-1.5h4V201.2L227.9,201.2z"/>
		</g>
		<g>
			<path class="st0" d="M47.9,203.2l8.6-8.6l1.6,1.6c1.7,1.7,1.7,4.4,0,6.1l-5.6,5.6l-3,3l-1.6-1.6
				C46.2,207.6,46.2,204.9,47.9,203.2L47.9,203.2z"/>
			<path class="st0" d="M54.9,210.3l8.6-8.6l1.6,1.6c1.7,1.7,1.7,4.4,0,6.1l-5.6,5.6l-3,3l-1.6-1.6C53.3,214.7,53.3,212,54.9,210.3
				L54.9,210.3z"/>
			<path class="st1" d="M35.7,201.4l13.8-13.8l1.6,1.6c1.7,1.7,1.7,4.4,0,6.1l-8.1,8.1c-0.8,0.8-1.2,1.9-1.2,3v0
				c0,1.1,0.4,2.2,1.2,3l2.2,2.2l1.8,1.8l4.1,4.1l0,0c1.7,1.7,1.7,4.4,0,6.1l-1.6,1.6l-3-3l0,0l-4.1-4.1l-1.8-1.8l-2.2-2.2l-2.7-2.7
				c-1.4-1.4-2-3.1-2.1-4.9v0C33.6,204.5,34.3,202.7,35.7,201.4L35.7,201.4z"/>
			<path class="st1" d="M77.4,201.4l-13.8-13.8l-1.6,1.6c-1.7,1.7-1.7,4.4,0,6.1l8.1,8.1c0.8,0.8,1.2,1.9,1.2,3v0
				c0,1.1-0.4,2.2-1.2,3l-2.2,2.2l-1.8,1.8l-4.1,4.1l0,0c-1.7,1.7-1.7,4.4,0,6.1l1.6,1.6l3-3l0,0l4.1-4.1l1.8-1.8l2.2-2.2l2.7-2.7
				c1.4-1.4,2-3.1,2.1-4.9v0C79.4,204.5,78.7,202.7,77.4,201.4L77.4,201.4z"/>
		</g>
	</g>
</g>
</svg>
